<svg width="60" height="49" viewBox="0 0 60 49" fill="none" xmlns="http://www.w3.org/2000/svg">
<path d="M23.2625 33.0875C23.2625 35.7 21.9 39.975 18.675 39.975C15.45 39.975 14.0875 35.7 14.0875 33.0875C14.0875 30.475 15.45 26.2 18.675 26.2C21.9 26.2 23.2625 30.475 23.2625 33.0875ZM60 26.775C60 30.7625 59.6 34.9875 57.8125 38.65C53.075 48.225 40.05 48 30.725 48C21.25 48 7.45 48.3375 2.525 38.65C0.7 35.025 0 30.7625 0 26.775C0 21.5375 1.7375 16.5875 5.1875 12.575C4.5375 10.6 4.225 8.525 4.225 6.475C4.225 3.7875 4.8375 2.4375 6.05 0C11.7125 0 15.3375 1.125 19.65 4.5C23.275 3.6375 27 3.25 30.7375 3.25C34.1125 3.25 37.5125 3.6125 40.7875 4.4C45.0375 1.0625 48.6625 0 54.2625 0C55.4875 2.4375 56.0875 3.7875 56.0875 6.475C56.0875 8.525 55.7625 10.5625 55.125 12.5C58.5625 16.55 60 21.5375 60 26.775ZM51.9625 33.0875C51.9625 27.6 48.625 22.7625 42.775 22.7625C40.4125 22.7625 38.15 23.1875 35.775 23.5125C33.9125 23.8 32.05 23.9125 30.1375 23.9125C28.2375 23.9125 26.375 23.8 24.5 23.5125C22.1625 23.1875 19.875 22.7625 17.5 22.7625C11.65 22.7625 8.3125 27.6 8.3125 33.0875C8.3125 44.0625 18.3625 45.75 27.1125 45.75H33.1375C41.925 45.75 51.9625 44.075 51.9625 33.0875ZM41.6375 26.2C38.4125 26.2 37.05 30.475 37.05 33.0875C37.05 35.7 38.4125 39.975 41.6375 39.975C44.8625 39.975 46.225 35.7 46.225 33.0875C46.225 30.475 44.8625 26.2 41.6375 26.2Z" fill="#2a2a2e"/>
</svg>
