<svg width="138" height="120" viewBox="0 0 138 120" fill="none" xmlns="http://www.w3.org/2000/svg">
<path d="M112.244 38.8874C110.794 38.4053 109.345 37.95 107.896 37.5214C108.137 36.5304 108.352 35.5394 108.567 34.5484C111.868 18.5849 109.694 5.75527 102.367 1.52335C95.3078 -2.52107 83.7936 1.68406 72.1452 11.8085C70.9911 12.7995 69.8638 13.8441 68.7902 14.8887C68.0655 14.1923 67.314 13.4959 66.5625 12.8263C54.3504 2.00547 42.1115 -2.54786 34.7843 1.71084C27.7523 5.78206 25.6588 17.8618 28.6111 32.9681C28.9064 34.468 29.2285 35.9412 29.6042 37.4411C27.8865 37.9232 26.1956 38.4589 24.612 39.0213C10.2796 43.9764 0 51.7975 0 59.8863C0 68.243 10.9506 76.6265 25.8466 81.7155C27.0544 82.1173 28.2622 82.519 29.4969 82.8672C29.0943 84.4743 28.7453 86.0546 28.4233 87.6884C25.6051 102.554 27.8059 114.339 34.838 118.383C42.0847 122.562 54.2699 118.276 66.1331 107.911C67.0725 107.08 68.0118 106.223 68.9512 105.312C70.1322 106.464 71.3668 107.562 72.6014 108.634C84.0888 118.49 95.442 122.481 102.447 118.437C109.694 114.258 112.056 101.589 108.996 86.1617C108.755 84.9832 108.486 83.7779 108.191 82.5458C109.05 82.3048 109.882 82.0369 110.714 81.7691C126.2 76.6533 137.419 68.3769 137.419 59.8863C137.419 51.7707 126.845 43.8961 112.244 38.8874ZM75.9296 16.1476C85.9139 7.46947 95.2273 4.06786 99.468 6.50523C104.004 9.10331 105.748 19.6027 102.903 33.3967C102.716 34.3073 102.528 35.1912 102.286 36.0751C96.3278 34.7359 90.2888 33.7716 84.223 33.2359C80.7339 28.2541 76.9226 23.4865 72.7893 19.0135C73.8361 18.0225 74.856 17.085 75.9296 16.1476ZM44.876 73.7873C46.2448 76.1176 47.6405 78.4478 49.1167 80.7245C44.9297 80.2691 40.7695 79.5995 36.6631 78.7157C37.844 74.8587 39.3202 70.8679 41.0379 66.7966C42.2726 69.1537 43.534 71.4839 44.876 73.7873ZM36.7436 41.5659C40.6085 40.7088 44.715 40.0124 48.9825 39.4767C47.56 41.6998 46.1643 43.9764 44.8492 46.2799C43.534 48.5566 42.2457 50.8868 41.0379 53.2438C39.347 49.2529 37.9245 45.3424 36.7436 41.5659ZM44.0977 60.0202C45.8691 56.324 47.8015 52.7081 49.8414 49.1458C51.8812 45.5835 54.082 42.1283 56.3903 38.7267C60.4162 38.4321 64.5227 38.2714 68.7097 38.2714C72.8967 38.2714 77.03 38.4321 81.0291 38.7267C83.3105 42.1015 85.4845 45.5567 87.5512 49.0922C89.6178 52.6278 91.5503 56.2436 93.3754 59.9131C91.5771 63.6093 89.6447 67.252 87.578 70.8411C85.5382 74.4034 83.3642 77.8586 81.0828 81.2869C77.0837 81.5816 72.9235 81.7155 68.7097 81.7155C64.4958 81.7155 60.4162 81.5816 56.4708 81.3405C54.1357 77.9389 51.9349 74.457 49.8682 70.8946C47.8015 67.3323 45.8959 63.7165 44.0977 60.0202ZM92.5702 73.7338C93.939 71.3768 95.2273 68.993 96.4888 66.5824C98.2065 70.4661 99.7095 74.4034 101.025 78.4478C96.8645 79.3853 92.6507 80.1084 88.41 80.5906C89.8594 78.3407 91.2282 76.0372 92.5702 73.7338ZM96.4351 53.2438C95.1736 50.8868 93.8853 48.5298 92.5433 46.2263C91.2282 43.9497 89.8594 41.6998 88.4369 39.4767C92.7581 40.0124 96.8914 40.7355 100.756 41.6194C99.5217 45.5835 98.0723 49.4404 96.4351 53.2438ZM68.7634 23.1115C71.5815 26.1649 74.2387 29.379 76.7079 32.7003C71.3936 32.4592 66.0525 32.4592 60.7383 32.7003C63.3686 29.2451 66.0794 26.031 68.7634 23.1115ZM37.6293 6.69272C42.1384 4.06786 52.1496 7.81766 62.6976 17.1386C63.3686 17.7278 64.0396 18.3707 64.7374 19.0135C60.5772 23.4865 56.7392 28.2541 53.2232 33.2359C47.1574 33.7716 41.1453 34.7091 35.1869 36.0215C34.838 34.6555 34.5427 33.2627 34.2475 31.8699C31.7245 18.9064 33.3886 9.13009 37.6293 6.69272ZM31.0536 77.2961C29.9263 76.9747 28.8259 76.6265 27.7254 76.2515C22.0086 74.457 15.5134 71.6178 10.8164 67.8948C8.10559 66.0199 6.28049 63.1272 5.77054 59.8863C5.77054 54.9848 14.2519 48.7173 26.4908 44.4586C28.0207 43.9229 29.5774 43.4408 31.1341 42.9854C32.9592 48.7976 35.16 54.5027 37.7098 60.0202C35.1332 65.6181 32.9055 71.4035 31.0536 77.2961ZM62.3487 103.545C57.9201 107.589 52.7937 110.803 47.2111 113C44.2319 114.419 40.7964 114.553 37.7366 113.348C33.4691 110.884 31.6977 101.429 34.1133 88.7062C34.4085 87.2063 34.7306 85.7064 35.1064 84.2332C41.1185 85.5189 47.1842 86.4027 53.3305 86.8581C56.8734 91.8667 60.7651 96.6611 64.9253 101.161C64.0664 101.991 63.2075 102.795 62.3487 103.545ZM68.9244 97.0361C66.1867 94.0898 63.4491 90.8222 60.792 87.3134C63.3686 87.4205 66.0257 87.4741 68.7097 87.4741C71.4742 87.4741 74.185 87.4205 76.8689 87.2866C74.3997 90.6882 71.7426 93.9291 68.9244 97.0361ZM104.004 105.071C103.762 108.339 102.152 111.392 99.5754 113.455C95.3078 115.919 86.2092 112.705 76.3858 104.295C75.2586 103.33 74.1313 102.286 72.9772 101.214C77.0837 96.6879 80.8681 91.8935 84.3036 86.8581C90.4499 86.3492 96.5693 85.4117 102.608 84.0457C102.877 85.1439 103.118 86.242 103.333 87.3134C104.648 93.0988 104.863 99.1253 104.004 105.071ZM108.889 76.2783C108.137 76.5193 107.386 76.7604 106.607 76.9747C104.729 71.1357 102.42 65.4307 99.7632 59.8863C102.34 54.4223 104.514 48.7976 106.339 43.039C107.735 43.4408 109.077 43.8693 110.365 44.2979C122.872 48.5833 131.649 54.958 131.649 59.8327C131.649 65.0825 122.282 71.8589 108.889 76.2783ZM68.7097 72.2606C75.5001 72.2606 81.0023 66.7699 81.0023 59.9934C81.0023 53.217 75.5001 47.7262 68.7097 47.7262C61.9192 47.7262 56.4171 53.217 56.4171 59.9934C56.4171 66.7699 61.9192 72.2606 68.7097 72.2606Z" fill="#61DAFB"/>
</svg>
