<svg width="160" height="120" viewBox="0 0 160 120" fill="none" xmlns="http://www.w3.org/2000/svg">
<path d="M75.453 90.7215C75.303 90.9915 75.378 90.8715 75.453 90.7215ZM137.73 68.9733C132.703 68.9717 127.742 70.1264 123.232 72.348C121.757 69.3733 120.232 66.7735 119.982 64.8237C119.682 62.5488 119.357 61.199 119.707 58.4992C120.057 55.7994 121.632 51.9747 121.607 51.6997C121.582 51.4248 121.257 50.0499 118.032 50.0249C114.807 49.9999 112.032 50.6498 111.71 51.4997C111.14 53.053 110.697 54.6497 110.385 56.2744C109.81 59.1991 103.938 69.6483 100.613 75.0978C99.5135 72.973 98.5886 71.0982 98.3886 69.5983C98.0886 67.3235 97.7636 65.9736 98.1136 63.2738C98.4636 60.574 100.038 56.7493 100.013 56.4743C99.9885 56.1994 99.6635 54.8245 96.4412 54.7995C93.219 54.7745 90.4417 55.4244 90.1168 56.2744C89.7918 57.1243 89.4418 59.1241 88.7919 61.049C88.1419 62.9738 80.3201 80.3724 78.2727 84.897C77.2228 87.1968 76.3229 89.0467 75.6729 90.2966C75.5729 90.4966 75.498 90.6216 75.448 90.7215C75.523 90.5966 75.5729 90.4716 75.5729 90.5216C75.023 91.5965 74.698 92.1964 74.698 92.1964V92.2214C74.2731 93.0214 73.7981 93.7463 73.5731 93.7463C73.4231 93.7463 73.0981 91.6465 73.6481 88.7717C74.823 82.7222 77.5978 73.323 77.5728 72.998C77.5478 72.823 78.0977 71.1981 75.7479 70.3232C73.4731 69.4983 72.6482 70.8732 72.4482 70.8732C72.2482 70.8732 72.0982 71.3731 72.0982 71.3731C72.0982 71.3731 74.623 60.774 67.2511 60.774C62.6515 60.774 56.252 65.8236 53.1073 70.3982C51.1324 71.4731 46.8578 73.7979 42.3582 76.2727C40.6333 77.2226 38.8584 78.1976 37.1836 79.1225C37.0586 78.9975 36.9586 78.8725 36.8336 78.7475C27.8868 69.1983 11.3682 62.4489 12.0681 49.6249C12.3181 44.9503 13.943 32.6763 43.833 17.7775C68.331 5.57848 87.9169 8.92821 91.2892 16.3776C96.1388 27.0017 80.8175 46.7751 55.3771 49.6249C45.6804 50.6998 40.5833 46.9501 39.3084 45.5502C37.9835 44.0753 37.7835 44.0004 37.2836 44.2753C36.4586 44.7253 36.9836 46.0252 37.2836 46.8001C38.0335 48.775 41.1582 52.2747 46.4803 54.0245C51.1549 55.5494 62.524 56.3993 76.2704 51.0748C91.7141 45.1253 103.736 28.5516 100.211 14.6777C96.6212 0.578893 73.2431 -4.04573 51.1374 3.80363C37.966 8.47825 23.7222 15.8277 13.4755 25.4019C1.304 36.8009 -0.643338 46.7251 0.156596 50.8748C3.00386 65.5986 23.2972 75.1978 31.419 82.2972C31.0191 82.5222 30.6441 82.7222 30.2941 82.9222C26.222 84.947 10.7507 93.0464 6.87855 101.596C2.50391 111.295 7.60349 118.244 10.9507 119.194C21.3974 122.094 32.094 116.869 37.841 108.295C43.5881 99.7208 42.8906 88.5217 40.2408 83.4221C40.2158 83.3471 40.1658 83.2972 40.1408 83.2222C41.1907 82.5972 42.2657 81.9723 43.3406 81.3473C45.4129 80.1224 47.4377 78.9975 49.2126 78.0226C48.2127 80.7224 47.4877 83.9721 47.1128 88.6717C46.6628 94.1713 48.9376 101.296 51.8874 104.095C53.1873 105.32 54.7596 105.345 55.7346 105.345C59.1843 105.345 60.7342 102.496 62.4565 99.0959C64.5813 94.9462 66.4562 90.1216 66.4562 90.1216C66.4562 90.1216 64.1064 103.171 70.5309 103.171C72.8782 103.171 75.228 100.146 76.2804 98.5959V98.6209C76.2804 98.6209 76.3304 98.5209 76.4554 98.3209C76.7054 97.946 76.8303 97.721 76.8303 97.721V97.646C77.7803 96.0211 79.8551 92.2964 82.9773 86.1469C87.027 78.1976 90.8992 68.2734 90.8992 68.2734C91.2734 70.455 91.7911 72.6095 92.4491 74.7229C93.149 77.0977 94.6239 79.6974 95.7988 82.2222C94.8489 83.5221 94.2739 84.2721 94.2739 84.2721C94.2757 84.2913 94.2847 84.3091 94.2989 84.3221C93.549 85.322 92.699 86.3969 91.8241 87.4468C88.6269 91.2465 84.8247 95.5962 84.3247 96.8461C83.7248 98.3209 83.8748 99.4208 85.0247 100.271C85.8746 100.921 87.3745 101.021 88.9469 100.896C91.8216 100.696 93.8465 99.9958 94.8214 99.5458C96.6187 98.9013 98.3174 98.0095 99.8685 96.896C102.993 94.5962 104.893 91.2965 104.718 86.9469C104.618 84.547 103.843 82.1472 102.893 79.8974C103.168 79.4975 103.468 79.0725 103.743 78.6475C108.69 71.4231 112.515 63.4938 112.515 63.4938C112.889 65.6753 113.407 67.8299 114.065 69.9432C114.665 71.9681 115.837 74.1929 116.912 76.3677C112.265 80.1424 109.39 84.5171 108.39 87.3918C106.54 92.7164 107.99 95.1162 110.715 95.6661C111.94 95.9161 113.69 95.3412 114.99 94.7912C116.92 94.1482 118.741 93.2123 120.387 92.0164C123.512 89.7166 126.534 86.4919 126.334 82.1172C126.259 80.1424 125.709 78.1676 124.984 76.2677C128.909 74.6179 134.006 73.7179 140.505 74.4679C154.424 76.0927 157.149 84.792 156.624 88.4167C156.099 92.0414 153.174 94.0663 152.199 94.6662C151.224 95.2662 150.924 95.4912 150.999 95.9411C151.124 96.5911 151.574 96.5661 152.399 96.4161C153.549 96.2161 159.696 93.4663 159.971 86.7419C160.371 78.2426 152.199 68.8933 137.723 68.9683L137.73 68.9733ZM30.4441 105.145C25.847 110.17 19.3975 112.07 16.6253 110.47C13.6505 108.74 14.8254 101.346 20.4974 95.9911C23.9472 92.7414 28.3943 89.7416 31.3441 87.8918C32.019 87.4918 32.9939 86.8919 34.1938 86.1669C34.3938 86.0419 34.4938 85.9919 34.4938 85.9919C34.7188 85.8419 34.9688 85.717 35.2187 85.567C37.2911 93.1663 35.2937 99.8658 30.4441 105.14V105.145ZM64.0314 82.2972C62.4315 86.2219 59.0593 96.2211 57.0095 95.6961C55.2596 95.2462 54.1847 87.6218 56.6595 80.1224C57.9094 76.3477 60.5592 71.8481 62.134 70.0982C64.6563 67.2735 67.4311 66.3735 68.0811 67.4984C68.956 68.9733 65.0313 79.8474 64.0314 82.2972ZM91.7791 95.5462C91.1042 95.8961 90.4792 96.1211 90.1793 95.9461C89.9543 95.8211 90.4542 95.3462 90.4542 95.3462C90.4542 95.3462 93.9289 91.6215 95.3038 89.9216C96.1038 88.9217 97.0287 87.7468 98.0261 86.4469C98.0261 86.5719 98.0511 86.6969 98.0511 86.8469C98.0186 91.3215 93.7215 94.3462 91.7716 95.5462H91.7791ZM113.172 90.6716C112.672 90.3216 112.747 89.1467 114.422 85.497C115.072 84.0721 116.57 81.6723 119.172 79.3725C119.466 80.243 119.627 81.1534 119.647 82.0723C119.622 87.6968 115.597 89.7966 113.175 90.6716H113.172Z" fill="#BF4080"/>
</svg>
